<mxfile host="app.diagrams.net" scale="0.8" border="0" agent="Mozilla/5.0 (Macintosh; Intel Mac OS X 10_15_7) AppleWebKit/537.36 (KHTML, like Gecko) Chrome/128.0.0.0 Safari/537.36" version="24.7.14">
  <diagram id="2imF5TS-2AsIUvXl1Hec" name="Page-1">
    <mxGraphModel dx="573" dy="415" grid="1" gridSize="10" guides="1" tooltips="1" connect="1" arrows="1" fold="1" page="1" pageScale="1" pageWidth="827" pageHeight="1169" math="0" shadow="0">
      <root>
        <mxCell id="0" />
        <mxCell id="1" parent="0" />
        <mxCell id="dOYXBr4Gtdy3hFG585El-8" value="&lt;div style=&quot;text-align: right; line-height: 14.4px;&quot;&gt;&lt;span style=&quot;background-color: initial;&quot;&gt;&lt;i&gt;IdentifiedObject&lt;/i&gt;&lt;/span&gt;&lt;/div&gt;&lt;div style=&quot;line-height: 14.4px;&quot;&gt;&lt;span style=&quot;background-color: initial; text-align: right;&quot;&gt;&lt;br&gt;&lt;/span&gt;&lt;/div&gt;«&lt;span style=&quot;background-color: initial;&quot;&gt;BusinessComponent&lt;/span&gt;»&lt;br&gt;&lt;b&gt;&lt;div style=&quot;line-height: 14.4px;&quot;&gt;&lt;b&gt;RootModel::DeviceFunctionType&lt;/b&gt;&lt;br&gt;&lt;/div&gt;&lt;/b&gt;" style="swimlane;fontStyle=0;align=center;verticalAlign=top;childLayout=stackLayout;horizontal=1;startSize=160;horizontalStack=0;resizeParent=1;resizeParentMax=0;resizeLast=0;collapsible=0;marginBottom=0;html=1;fillColor=#e9fea7;shadow=1;fontSize=12;" vertex="1" parent="1">
          <mxGeometry x="50" y="70" width="270" height="90" as="geometry" />
        </mxCell>
        <mxCell id="dOYXBr4Gtdy3hFG585El-32" style="rounded=0;orthogonalLoop=1;jettySize=auto;html=1;entryX=0.5;entryY=1;entryDx=0;entryDy=0;endArrow=blockThin;endFill=0;endSize=15;" edge="1" parent="1" source="dOYXBr4Gtdy3hFG585El-9" target="dOYXBr4Gtdy3hFG585El-8">
          <mxGeometry relative="1" as="geometry" />
        </mxCell>
        <mxCell id="dOYXBr4Gtdy3hFG585El-9" value="&lt;div style=&quot;line-height: 14.4px;&quot;&gt;&lt;span style=&quot;background-color: initial;&quot;&gt;«&lt;/span&gt;&lt;span style=&quot;background-color: initial;&quot;&gt;BusinessComponent&lt;/span&gt;&lt;span style=&quot;background-color: initial;&quot;&gt;»&lt;/span&gt;&lt;br&gt;&lt;/div&gt;&lt;b&gt;&lt;div style=&quot;line-height: 14.4px;&quot;&gt;&lt;b&gt;MeteringFunctionType&lt;/b&gt;&lt;br&gt;&lt;/div&gt;&lt;/b&gt;" style="swimlane;fontStyle=0;align=center;verticalAlign=top;childLayout=stackLayout;horizontal=1;startSize=160;horizontalStack=0;resizeParent=1;resizeParentMax=0;resizeLast=0;collapsible=0;marginBottom=0;html=1;fillColor=#e9fea7;shadow=1;fontSize=12;" vertex="1" parent="1">
          <mxGeometry x="50" y="260" width="270" height="90" as="geometry" />
        </mxCell>
        <mxCell id="dOYXBr4Gtdy3hFG585El-35" style="edgeStyle=orthogonalEdgeStyle;rounded=1;orthogonalLoop=1;jettySize=auto;html=1;exitX=0.241;exitY=1.003;exitDx=0;exitDy=0;entryX=1;entryY=0.5;entryDx=0;entryDy=0;exitPerimeter=0;curved=0;endArrow=none;endFill=0;" edge="1" parent="1" source="dOYXBr4Gtdy3hFG585El-11" target="dOYXBr4Gtdy3hFG585El-9">
          <mxGeometry relative="1" as="geometry" />
        </mxCell>
        <mxCell id="dOYXBr4Gtdy3hFG585El-36" value="+MeterValue" style="edgeLabel;html=1;align=center;verticalAlign=middle;resizable=0;points=[];" vertex="1" connectable="0" parent="dOYXBr4Gtdy3hFG585El-35">
          <mxGeometry x="-0.9344" relative="1" as="geometry">
            <mxPoint x="-33" y="1" as="offset" />
          </mxGeometry>
        </mxCell>
        <mxCell id="dOYXBr4Gtdy3hFG585El-37" value="0..*" style="edgeLabel;html=1;align=center;verticalAlign=middle;resizable=0;points=[];" vertex="1" connectable="0" parent="dOYXBr4Gtdy3hFG585El-35">
          <mxGeometry x="-0.9155" y="2" relative="1" as="geometry">
            <mxPoint x="9" y="-1" as="offset" />
          </mxGeometry>
        </mxCell>
        <mxCell id="dOYXBr4Gtdy3hFG585El-10" value="&lt;div style=&quot;line-height: 14.4px;&quot;&gt;&lt;span style=&quot;background-color: initial;&quot;&gt;«&lt;/span&gt;&lt;span style=&quot;background-color: initial;&quot;&gt;BusinessComponent&lt;/span&gt;&lt;span style=&quot;background-color: initial;&quot;&gt;»&lt;/span&gt;&lt;br&gt;&lt;/div&gt;&lt;b&gt;&lt;div style=&quot;line-height: 14.4px;&quot;&gt;&lt;b&gt;RootModel::EVSEType&lt;/b&gt;&lt;br&gt;&lt;/div&gt;&lt;/b&gt;" style="swimlane;fontStyle=0;align=center;verticalAlign=top;childLayout=stackLayout;horizontal=1;startSize=50;horizontalStack=0;resizeParent=1;resizeParentMax=0;resizeLast=0;collapsible=0;marginBottom=0;html=1;fillColor=#e9fea7;shadow=1;fontSize=12;" vertex="1" parent="1">
          <mxGeometry x="400" y="70" width="290" height="130" as="geometry" />
        </mxCell>
        <mxCell id="dOYXBr4Gtdy3hFG585El-11" value="&lt;div&gt;&lt;span style=&quot;text-align: center; background-color: initial;&quot;&gt;&amp;nbsp; «Content»&lt;/span&gt;&lt;br&gt;&lt;/div&gt;&lt;div&gt;+&amp;nbsp; &amp;nbsp; TimeStamp: DateTime [0..1]&lt;/div&gt;" style="text;html=1;strokeColor=none;fillColor=#e9fea7;align=left;verticalAlign=top;spacingLeft=4;spacingRight=4;overflow=hidden;rotatable=0;points=[[0,0.5],[1,0.5]];portConstraint=eastwest;fontSize=12;" vertex="1" parent="dOYXBr4Gtdy3hFG585El-10">
          <mxGeometry y="50" width="290" height="80" as="geometry" />
        </mxCell>
        <mxCell id="dOYXBr4Gtdy3hFG585El-33" style="rounded=0;orthogonalLoop=1;jettySize=auto;html=1;entryX=0.5;entryY=1;entryDx=0;entryDy=0;endArrow=blockThin;endFill=0;endSize=15;" edge="1" parent="1" source="dOYXBr4Gtdy3hFG585El-12" target="dOYXBr4Gtdy3hFG585El-9">
          <mxGeometry relative="1" as="geometry" />
        </mxCell>
        <mxCell id="dOYXBr4Gtdy3hFG585El-12" value="&lt;div style=&quot;line-height: 14.4px;&quot;&gt;&lt;span style=&quot;background-color: initial;&quot;&gt;«&lt;/span&gt;&lt;span style=&quot;background-color: initial;&quot;&gt;BusinessComponent&lt;/span&gt;&lt;span style=&quot;background-color: initial;&quot;&gt;»&lt;/span&gt;&lt;br&gt;&lt;/div&gt;&lt;b&gt;&lt;div style=&quot;line-height: 14.4px;&quot;&gt;&lt;b&gt;ClockAlignedMeteringFunctionType&lt;/b&gt;&lt;br&gt;&lt;/div&gt;&lt;/b&gt;" style="swimlane;fontStyle=0;align=center;verticalAlign=top;childLayout=stackLayout;horizontal=1;startSize=50;horizontalStack=0;resizeParent=1;resizeParentMax=0;resizeLast=0;collapsible=0;marginBottom=0;html=1;fillColor=#e9fea7;shadow=1;fontSize=12;" vertex="1" parent="1">
          <mxGeometry x="20" y="460" width="330" height="150" as="geometry" />
        </mxCell>
        <mxCell id="dOYXBr4Gtdy3hFG585El-13" value="&lt;div&gt;&lt;span style=&quot;text-align: center; background-color: initial;&quot;&gt;&amp;nbsp; «Content»&lt;/span&gt;&lt;br&gt;&lt;/div&gt;&lt;div&gt;+&amp;nbsp; &amp;nbsp; ClockAlignedDataInterval: SecondsType [0..1]&lt;/div&gt;&lt;div&gt;+&amp;nbsp; &amp;nbsp; MeterValuesAlignedData: MeasurandEnumType [0..*]&lt;br&gt;&lt;/div&gt;&lt;div&gt;+&amp;nbsp; &amp;nbsp; MeterValuesAlignedDataMaxLength: CounterType [0..1]&lt;br&gt;&lt;/div&gt;&lt;div&gt;+&amp;nbsp; &amp;nbsp; TxnStoppedAlignedData: MeasurandEnumType [0..*]&lt;br&gt;&lt;/div&gt;&lt;div&gt;+&amp;nbsp; &amp;nbsp; TxnStoppedAlignedDataMaxLength: CounterType [0..1]&lt;br&gt;&lt;/div&gt;" style="text;html=1;strokeColor=none;fillColor=#e9fea7;align=left;verticalAlign=top;spacingLeft=4;spacingRight=4;overflow=hidden;rotatable=0;points=[[0,0.5],[1,0.5]];portConstraint=eastwest;fontSize=12;" vertex="1" parent="dOYXBr4Gtdy3hFG585El-12">
          <mxGeometry y="50" width="330" height="100" as="geometry" />
        </mxCell>
        <mxCell id="dOYXBr4Gtdy3hFG585El-34" style="edgeStyle=orthogonalEdgeStyle;rounded=1;orthogonalLoop=1;jettySize=auto;html=1;exitX=0.25;exitY=0;exitDx=0;exitDy=0;entryX=1;entryY=0.5;entryDx=0;entryDy=0;curved=0;endArrow=none;endFill=0;" edge="1" parent="1" source="dOYXBr4Gtdy3hFG585El-14" target="dOYXBr4Gtdy3hFG585El-9">
          <mxGeometry relative="1" as="geometry" />
        </mxCell>
        <mxCell id="dOYXBr4Gtdy3hFG585El-38" value="+Meter" style="edgeLabel;html=1;align=center;verticalAlign=middle;resizable=0;points=[];" vertex="1" connectable="0" parent="dOYXBr4Gtdy3hFG585El-34">
          <mxGeometry x="-0.9309" y="1" relative="1" as="geometry">
            <mxPoint x="-19" as="offset" />
          </mxGeometry>
        </mxCell>
        <mxCell id="dOYXBr4Gtdy3hFG585El-39" value="0..1" style="edgeLabel;html=1;align=center;verticalAlign=middle;resizable=0;points=[];" vertex="1" connectable="0" parent="dOYXBr4Gtdy3hFG585El-34">
          <mxGeometry x="-0.9393" relative="1" as="geometry">
            <mxPoint x="11" as="offset" />
          </mxGeometry>
        </mxCell>
        <mxCell id="dOYXBr4Gtdy3hFG585El-40" value="+MeteringFunction" style="edgeLabel;html=1;align=center;verticalAlign=middle;resizable=0;points=[];" vertex="1" connectable="0" parent="dOYXBr4Gtdy3hFG585El-34">
          <mxGeometry x="0.8942" relative="1" as="geometry">
            <mxPoint x="33" y="-10" as="offset" />
          </mxGeometry>
        </mxCell>
        <mxCell id="dOYXBr4Gtdy3hFG585El-41" value="0..1" style="edgeLabel;html=1;align=center;verticalAlign=middle;resizable=0;points=[];" vertex="1" connectable="0" parent="dOYXBr4Gtdy3hFG585El-34">
          <mxGeometry x="0.9083" relative="1" as="geometry">
            <mxPoint x="-1" y="9" as="offset" />
          </mxGeometry>
        </mxCell>
        <mxCell id="dOYXBr4Gtdy3hFG585El-14" value="&lt;div style=&quot;text-align: right; line-height: 14.4px;&quot;&gt;&lt;span style=&quot;background-color: initial;&quot;&gt;&lt;i&gt;DeviceType&lt;/i&gt;&lt;/span&gt;&lt;/div&gt;&lt;div style=&quot;line-height: 14.4px;&quot;&gt;&lt;span style=&quot;background-color: initial; text-align: right;&quot;&gt;&lt;br&gt;&lt;/span&gt;&lt;/div&gt;«&lt;span style=&quot;background-color: initial;&quot;&gt;BusinessComponent&lt;/span&gt;»&lt;br&gt;&lt;b&gt;&lt;div style=&quot;line-height: 14.4px;&quot;&gt;&lt;b&gt;MeterType&lt;/b&gt;&lt;br&gt;&lt;/div&gt;&lt;/b&gt;" style="swimlane;fontStyle=0;align=center;verticalAlign=top;childLayout=stackLayout;horizontal=1;startSize=70;horizontalStack=0;resizeParent=1;resizeParentMax=0;resizeLast=0;collapsible=0;marginBottom=0;html=1;fillColor=#e9fea7;shadow=1;fontSize=12;" vertex="1" parent="1">
          <mxGeometry x="392" y="440" width="306" height="130" as="geometry" />
        </mxCell>
        <mxCell id="dOYXBr4Gtdy3hFG585El-15" value="&lt;div&gt;&lt;span style=&quot;text-align: center; background-color: initial;&quot;&gt;&amp;nbsp; «Content»&lt;/span&gt;&lt;br&gt;&lt;/div&gt;&lt;div&gt;+&amp;nbsp; &amp;nbsp; Location: LocationEnumType [0..1]&lt;/div&gt;&lt;div&gt;+&amp;nbsp; &amp;nbsp; SupportedMeasurands: MeasurandEnumType [0..*]&lt;br&gt;&lt;/div&gt;" style="text;html=1;strokeColor=none;fillColor=#e9fea7;align=left;verticalAlign=top;spacingLeft=4;spacingRight=4;overflow=hidden;rotatable=0;points=[[0,0.5],[1,0.5]];portConstraint=eastwest;fontSize=12;" vertex="1" parent="dOYXBr4Gtdy3hFG585El-14">
          <mxGeometry y="70" width="306" height="60" as="geometry" />
        </mxCell>
        <mxCell id="dOYXBr4Gtdy3hFG585El-16" value="&lt;div style=&quot;line-height: 14.4px;&quot;&gt;&lt;span style=&quot;background-color: initial;&quot;&gt;«&lt;/span&gt;&lt;span style=&quot;background-color: initial;&quot;&gt;BusinessComponent&lt;/span&gt;&lt;span style=&quot;background-color: initial;&quot;&gt;»&lt;/span&gt;&lt;br&gt;&lt;/div&gt;&lt;b&gt;&lt;div style=&quot;line-height: 14.4px;&quot;&gt;&lt;b&gt;SampledValueType&lt;/b&gt;&lt;br&gt;&lt;/div&gt;&lt;/b&gt;" style="swimlane;fontStyle=0;align=center;verticalAlign=top;childLayout=stackLayout;horizontal=1;startSize=50;horizontalStack=0;resizeParent=1;resizeParentMax=0;resizeLast=0;collapsible=0;marginBottom=0;html=1;fillColor=#e9fea7;shadow=1;fontSize=12;" vertex="1" parent="1">
          <mxGeometry x="730" y="230" width="260" height="210" as="geometry" />
        </mxCell>
        <mxCell id="dOYXBr4Gtdy3hFG585El-17" value="&lt;div&gt;&lt;span style=&quot;text-align: center; background-color: initial;&quot;&gt;&amp;nbsp; «Content»&lt;/span&gt;&lt;br&gt;&lt;/div&gt;&lt;div&gt;+&amp;nbsp; &amp;nbsp; Value: MeasureType [0..1]&lt;/div&gt;&lt;div&gt;+&amp;nbsp; &amp;nbsp; Context: ReadingContextEnumType [0..1]&lt;br&gt;&lt;/div&gt;&lt;div&gt;+&amp;nbsp; &amp;nbsp; Measurand: MeasurandEnunType [0..1]&lt;br&gt;&lt;/div&gt;&lt;div&gt;+&amp;nbsp; &amp;nbsp; Phase: PhaseEnumType [0..1]&lt;br&gt;&lt;/div&gt;&lt;div&gt;+&amp;nbsp; &amp;nbsp; Location: LocationEnumType [0..1]&lt;br&gt;&lt;/div&gt;" style="text;html=1;strokeColor=none;fillColor=#e9fea7;align=left;verticalAlign=top;spacingLeft=4;spacingRight=4;overflow=hidden;rotatable=0;points=[[0,0.5],[1,0.5]];portConstraint=eastwest;fontSize=12;" vertex="1" parent="dOYXBr4Gtdy3hFG585El-16">
          <mxGeometry y="50" width="260" height="160" as="geometry" />
        </mxCell>
        <mxCell id="dOYXBr4Gtdy3hFG585El-18" value="&lt;div style=&quot;line-height: 14.4px;&quot;&gt;&lt;span style=&quot;background-color: initial;&quot;&gt;«&lt;/span&gt;&lt;span style=&quot;background-color: initial;&quot;&gt;BusinessComponent&lt;/span&gt;&lt;span style=&quot;background-color: initial;&quot;&gt;»&lt;/span&gt;&lt;br&gt;&lt;/div&gt;&lt;b&gt;&lt;div style=&quot;line-height: 14.4px;&quot;&gt;&lt;b&gt;UnitOfMeasureType&lt;/b&gt;&lt;br&gt;&lt;/div&gt;&lt;/b&gt;" style="swimlane;fontStyle=0;align=center;verticalAlign=top;childLayout=stackLayout;horizontal=1;startSize=50;horizontalStack=0;resizeParent=1;resizeParentMax=0;resizeLast=0;collapsible=0;marginBottom=0;html=1;fillColor=#e9fea7;shadow=1;fontSize=12;" vertex="1" parent="1">
          <mxGeometry x="690" y="605" width="180" height="110" as="geometry" />
        </mxCell>
        <mxCell id="dOYXBr4Gtdy3hFG585El-19" value="&lt;div&gt;&lt;span style=&quot;text-align: center; background-color: initial;&quot;&gt;&amp;nbsp; «Content»&lt;/span&gt;&lt;br&gt;&lt;/div&gt;&lt;div&gt;+&amp;nbsp; &amp;nbsp; Unit: CI20TextType [0..1]&lt;/div&gt;&lt;div&gt;+&amp;nbsp; &amp;nbsp; Multiplier: IntegerType [0..1]&lt;br&gt;&lt;/div&gt;" style="text;html=1;strokeColor=none;fillColor=#e9fea7;align=left;verticalAlign=top;spacingLeft=4;spacingRight=4;overflow=hidden;rotatable=0;points=[[0,0.5],[1,0.5]];portConstraint=eastwest;fontSize=12;" vertex="1" parent="dOYXBr4Gtdy3hFG585El-18">
          <mxGeometry y="50" width="180" height="60" as="geometry" />
        </mxCell>
        <mxCell id="dOYXBr4Gtdy3hFG585El-20" value="&lt;div style=&quot;line-height: 14.4px;&quot;&gt;&lt;span style=&quot;background-color: initial;&quot;&gt;«&lt;/span&gt;&lt;span style=&quot;background-color: initial;&quot;&gt;BusinessComponent&lt;/span&gt;&lt;span style=&quot;background-color: initial;&quot;&gt;»&lt;/span&gt;&lt;br&gt;&lt;/div&gt;&lt;b&gt;&lt;div style=&quot;line-height: 14.4px;&quot;&gt;&lt;b&gt;SignedMeterValueType&lt;/b&gt;&lt;br&gt;&lt;/div&gt;&lt;/b&gt;" style="swimlane;fontStyle=0;align=center;verticalAlign=top;childLayout=stackLayout;horizontal=1;startSize=50;horizontalStack=0;resizeParent=1;resizeParentMax=0;resizeLast=0;collapsible=0;marginBottom=0;html=1;fillColor=#e9fea7;shadow=1;fontSize=12;" vertex="1" parent="1">
          <mxGeometry x="980" y="480" width="310" height="120" as="geometry" />
        </mxCell>
        <mxCell id="dOYXBr4Gtdy3hFG585El-21" value="&lt;div&gt;&lt;span style=&quot;background-color: initial;&quot;&gt;+&amp;nbsp; &amp;nbsp; MeterValueSignature: Base64String2500Type [0..1]&lt;/span&gt;&lt;/div&gt;&lt;div&gt;+&amp;nbsp; &amp;nbsp; SignatureMethod: SignatureMethodEnumType&lt;span style=&quot;background-color: initial;&quot;&gt;&lt;br&gt;&lt;/span&gt;&lt;/div&gt;&lt;div&gt;+&amp;nbsp; &amp;nbsp; EncodingMethod: EncodingMethodEnumType [0..1]&lt;br&gt;&lt;/div&gt;&lt;div&gt;+&amp;nbsp; &amp;nbsp; EncodedMeterValue: Base64String512Type [0..1]&lt;br&gt;&lt;/div&gt;" style="text;html=1;strokeColor=none;fillColor=#e9fea7;align=left;verticalAlign=top;spacingLeft=4;spacingRight=4;overflow=hidden;rotatable=0;points=[[0,0.5],[1,0.5]];portConstraint=eastwest;fontSize=12;" vertex="1" parent="dOYXBr4Gtdy3hFG585El-20">
          <mxGeometry y="50" width="310" height="70" as="geometry" />
        </mxCell>
        <mxCell id="dOYXBr4Gtdy3hFG585El-24" value="" style="group" vertex="1" connectable="0" parent="1">
          <mxGeometry x="1020" y="10" width="170" height="90" as="geometry" />
        </mxCell>
        <mxCell id="dOYXBr4Gtdy3hFG585El-22" value="&lt;div style=&quot;line-height: 14.4px;&quot;&gt;&lt;span style=&quot;background-color: initial;&quot;&gt;«&lt;/span&gt;&lt;span style=&quot;background-color: initial;&quot;&gt;PRIMSimpleType&lt;/span&gt;&lt;span style=&quot;background-color: initial;&quot;&gt;»&lt;/span&gt;&lt;/div&gt;" style="swimlane;fontStyle=0;align=center;verticalAlign=top;childLayout=stackLayout;horizontal=1;startSize=160;horizontalStack=0;resizeParent=1;resizeParentMax=0;resizeLast=0;collapsible=0;marginBottom=0;html=1;fillColor=#f6fda6;shadow=1;fontSize=12;" vertex="1" parent="dOYXBr4Gtdy3hFG585El-24">
          <mxGeometry width="170" height="60" as="geometry" />
        </mxCell>
        <mxCell id="dOYXBr4Gtdy3hFG585El-23" value="&lt;i&gt;(from PrimitiveDataTypes)&lt;/i&gt;" style="text;html=1;align=center;verticalAlign=middle;resizable=0;points=[];autosize=1;strokeColor=none;fillColor=none;" vertex="1" parent="dOYXBr4Gtdy3hFG585El-24">
          <mxGeometry x="5" y="60" width="160" height="30" as="geometry" />
        </mxCell>
        <mxCell id="dOYXBr4Gtdy3hFG585El-27" value="" style="group;fontSize=12;" vertex="1" connectable="0" parent="1">
          <mxGeometry x="970" y="120" width="270" height="120" as="geometry" />
        </mxCell>
        <mxCell id="dOYXBr4Gtdy3hFG585El-28" value="" style="group;fontSize=12;" vertex="1" connectable="0" parent="dOYXBr4Gtdy3hFG585El-27">
          <mxGeometry width="270" height="110" as="geometry" />
        </mxCell>
        <mxCell id="dOYXBr4Gtdy3hFG585El-29" value="&lt;font style=&quot;border-color: var(--border-color); font-size: 12px;&quot;&gt;&lt;font style=&quot;border-color: var(--border-color);&quot;&gt;«C&lt;/font&gt;&lt;font style=&quot;border-color: var(--border-color);&quot;&gt;DTComplexType,LDT,ECDMChange,CDT»&lt;/font&gt;&lt;br style=&quot;border-color: var(--border-color); font-size: 12px;&quot;&gt;&lt;/font&gt;&lt;b style=&quot;border-color: var(--border-color); background-color: initial; font-size: 12px;&quot;&gt;MeasureType&lt;/b&gt;" style="swimlane;fontStyle=0;align=center;verticalAlign=top;childLayout=stackLayout;horizontal=1;startSize=40;horizontalStack=0;resizeParent=1;resizeParentMax=0;resizeLast=0;collapsible=0;marginBottom=0;html=1;shadow=1;labelBackgroundColor=none;fontFamily=Helvetica;fontSize=12;fillColor=#F6FDA6;" vertex="1" parent="dOYXBr4Gtdy3hFG585El-28">
          <mxGeometry x="2.4819875776397504" width="265.03602484472054" height="90" as="geometry" />
        </mxCell>
        <mxCell id="dOYXBr4Gtdy3hFG585El-30" value="&lt;span style=&quot;text-align: center; font-size: 12px;&quot;&gt;«&lt;/span&gt;&lt;span style=&quot;border-color: var(--border-color); text-align: center; background-color: initial; font-size: 12px;&quot;&gt;Supplementary&lt;/span&gt;&lt;span style=&quot;text-align: center; font-size: 12px;&quot;&gt;»&lt;/span&gt;&lt;br style=&quot;border-color: var(--border-color); text-align: center; font-size: 12px;&quot;&gt;&lt;span style=&quot;border-color: var(--border-color); text-align: center; background-color: initial; font-size: 12px;&quot;&gt;+&amp;nbsp; &amp;nbsp; measureUnit: String [0..1]&lt;br style=&quot;font-size: 12px;&quot;&gt;+&amp;nbsp; &amp;nbsp; measureUnit.CodeListVersion: String [0..1]&lt;br style=&quot;font-size: 12px;&quot;&gt;&lt;/span&gt;" style="text;html=1;strokeColor=none;fillColor=#F6FDA6;align=left;verticalAlign=middle;spacingLeft=4;spacingRight=4;overflow=hidden;rotatable=0;points=[[0,0.5],[1,0.5]];portConstraint=eastwest;shadow=1;labelBackgroundColor=none;fontFamily=Helvetica;fontSize=12;strokeWidth=2;perimeterSpacing=0;" vertex="1" parent="dOYXBr4Gtdy3hFG585El-29">
          <mxGeometry y="40" width="265.03602484472054" height="50" as="geometry" />
        </mxCell>
        <mxCell id="dOYXBr4Gtdy3hFG585El-31" value="&lt;font style=&quot;font-size: 12px;&quot;&gt;&lt;i style=&quot;font-size: 12px;&quot;&gt;(from&amp;nbsp;&lt;span style=&quot;background-color: initial; font-size: 12px;&quot;&gt;CoreDataTypes)&lt;/span&gt;&lt;/i&gt;&lt;/font&gt;" style="text;html=1;strokeColor=none;fillColor=none;align=center;verticalAlign=middle;whiteSpace=wrap;rounded=0;shadow=1;fontFamily=Helvetica;fontSize=12;" vertex="1" parent="dOYXBr4Gtdy3hFG585El-27">
          <mxGeometry x="2.4846625766871155" y="90" width="265.0306748466258" height="30" as="geometry" />
        </mxCell>
        <mxCell id="dOYXBr4Gtdy3hFG585El-42" style="rounded=0;orthogonalLoop=1;jettySize=auto;html=1;exitX=0.75;exitY=0;exitDx=0;exitDy=0;entryX=0.761;entryY=1.013;entryDx=0;entryDy=0;entryPerimeter=0;endArrow=none;endFill=0;" edge="1" parent="1" source="dOYXBr4Gtdy3hFG585El-14" target="dOYXBr4Gtdy3hFG585El-11">
          <mxGeometry relative="1" as="geometry" />
        </mxCell>
        <mxCell id="dOYXBr4Gtdy3hFG585El-43" value="+MeterValue" style="edgeLabel;html=1;align=center;verticalAlign=middle;resizable=0;points=[];" vertex="1" connectable="0" parent="dOYXBr4Gtdy3hFG585El-42">
          <mxGeometry x="0.9468" relative="1" as="geometry">
            <mxPoint x="-35" y="2" as="offset" />
          </mxGeometry>
        </mxCell>
        <mxCell id="dOYXBr4Gtdy3hFG585El-44" value="0..*" style="edgeLabel;html=1;align=center;verticalAlign=middle;resizable=0;points=[];" vertex="1" connectable="0" parent="dOYXBr4Gtdy3hFG585El-42">
          <mxGeometry x="0.9334" relative="1" as="geometry">
            <mxPoint x="11" as="offset" />
          </mxGeometry>
        </mxCell>
        <mxCell id="dOYXBr4Gtdy3hFG585El-45" value="+Meter" style="edgeLabel;html=1;align=center;verticalAlign=middle;resizable=0;points=[];" vertex="1" connectable="0" parent="dOYXBr4Gtdy3hFG585El-42">
          <mxGeometry x="-0.9247" relative="1" as="geometry">
            <mxPoint x="-21" y="-1" as="offset" />
          </mxGeometry>
        </mxCell>
        <mxCell id="dOYXBr4Gtdy3hFG585El-46" value="0.1" style="edgeLabel;html=1;align=center;verticalAlign=middle;resizable=0;points=[];" vertex="1" connectable="0" parent="dOYXBr4Gtdy3hFG585El-42">
          <mxGeometry x="-0.918" y="-2" relative="1" as="geometry">
            <mxPoint x="8" as="offset" />
          </mxGeometry>
        </mxCell>
        <mxCell id="dOYXBr4Gtdy3hFG585El-47" style="edgeStyle=orthogonalEdgeStyle;rounded=1;orthogonalLoop=1;jettySize=auto;html=1;exitX=0.5;exitY=0;exitDx=0;exitDy=0;entryX=0.999;entryY=0.023;entryDx=0;entryDy=0;entryPerimeter=0;endArrow=diamondThin;endFill=1;endSize=15;curved=0;" edge="1" parent="1" source="dOYXBr4Gtdy3hFG585El-16" target="dOYXBr4Gtdy3hFG585El-11">
          <mxGeometry relative="1" as="geometry" />
        </mxCell>
        <mxCell id="dOYXBr4Gtdy3hFG585El-48" value="+SampledValue" style="edgeLabel;html=1;align=center;verticalAlign=middle;resizable=0;points=[];" vertex="1" connectable="0" parent="dOYXBr4Gtdy3hFG585El-47">
          <mxGeometry x="-0.9296" y="1" relative="1" as="geometry">
            <mxPoint x="-40" y="1" as="offset" />
          </mxGeometry>
        </mxCell>
        <mxCell id="dOYXBr4Gtdy3hFG585El-49" value="0..*" style="edgeLabel;html=1;align=center;verticalAlign=middle;resizable=0;points=[];" vertex="1" connectable="0" parent="dOYXBr4Gtdy3hFG585El-47">
          <mxGeometry x="-0.944" y="-1" relative="1" as="geometry">
            <mxPoint x="10" y="-1" as="offset" />
          </mxGeometry>
        </mxCell>
        <mxCell id="dOYXBr4Gtdy3hFG585El-50" style="rounded=0;orthogonalLoop=1;jettySize=auto;html=1;exitX=0.5;exitY=0;exitDx=0;exitDy=0;entryX=0.193;entryY=1.004;entryDx=0;entryDy=0;entryPerimeter=0;endArrow=diamondThin;endFill=1;endSize=15;" edge="1" parent="1" source="dOYXBr4Gtdy3hFG585El-18" target="dOYXBr4Gtdy3hFG585El-17">
          <mxGeometry relative="1" as="geometry" />
        </mxCell>
        <mxCell id="dOYXBr4Gtdy3hFG585El-51" value="+UnitOfMeasure" style="edgeLabel;html=1;align=center;verticalAlign=middle;resizable=0;points=[];" vertex="1" connectable="0" parent="dOYXBr4Gtdy3hFG585El-50">
          <mxGeometry x="-0.8978" relative="1" as="geometry">
            <mxPoint x="-43" y="-1" as="offset" />
          </mxGeometry>
        </mxCell>
        <mxCell id="dOYXBr4Gtdy3hFG585El-52" value="0..1" style="edgeLabel;html=1;align=center;verticalAlign=middle;resizable=0;points=[];" vertex="1" connectable="0" parent="dOYXBr4Gtdy3hFG585El-50">
          <mxGeometry x="-0.8978" relative="1" as="geometry">
            <mxPoint x="12" as="offset" />
          </mxGeometry>
        </mxCell>
        <mxCell id="dOYXBr4Gtdy3hFG585El-53" style="edgeStyle=orthogonalEdgeStyle;rounded=1;orthogonalLoop=1;jettySize=auto;html=1;exitX=-0.002;exitY=0.414;exitDx=0;exitDy=0;entryX=0.568;entryY=0.996;entryDx=0;entryDy=0;entryPerimeter=0;endArrow=none;endFill=0;curved=0;exitPerimeter=0;" edge="1" parent="1" source="dOYXBr4Gtdy3hFG585El-21" target="dOYXBr4Gtdy3hFG585El-17">
          <mxGeometry relative="1" as="geometry" />
        </mxCell>
        <mxCell id="dOYXBr4Gtdy3hFG585El-54" value="+SampledValue" style="edgeLabel;html=1;align=center;verticalAlign=middle;resizable=0;points=[];" vertex="1" connectable="0" parent="dOYXBr4Gtdy3hFG585El-53">
          <mxGeometry x="0.9533" relative="1" as="geometry">
            <mxPoint x="-41" y="4" as="offset" />
          </mxGeometry>
        </mxCell>
        <mxCell id="dOYXBr4Gtdy3hFG585El-55" value="0..1" style="edgeLabel;html=1;align=center;verticalAlign=middle;resizable=0;points=[];" vertex="1" connectable="0" parent="dOYXBr4Gtdy3hFG585El-53">
          <mxGeometry x="0.9071" y="-1" relative="1" as="geometry">
            <mxPoint x="10" y="-1" as="offset" />
          </mxGeometry>
        </mxCell>
        <mxCell id="dOYXBr4Gtdy3hFG585El-56" value="+SignedMeterValue" style="edgeLabel;html=1;align=center;verticalAlign=middle;resizable=0;points=[];" vertex="1" connectable="0" parent="dOYXBr4Gtdy3hFG585El-53">
          <mxGeometry x="-0.7766" relative="1" as="geometry">
            <mxPoint x="-26" y="-9" as="offset" />
          </mxGeometry>
        </mxCell>
        <mxCell id="dOYXBr4Gtdy3hFG585El-57" value="0..1" style="edgeLabel;html=1;align=center;verticalAlign=middle;resizable=0;points=[];" vertex="1" connectable="0" parent="dOYXBr4Gtdy3hFG585El-53">
          <mxGeometry x="-0.8267" y="2" relative="1" as="geometry">
            <mxPoint x="8" y="7" as="offset" />
          </mxGeometry>
        </mxCell>
      </root>
    </mxGraphModel>
  </diagram>
</mxfile>
